<svg width="1117" height="88" viewBox="0 0 1117 88" fill="none" xmlns="http://www.w3.org/2000/svg">
<path d="M0 28C0 12.536 12.536 0 28 0H1089C1104.46 0 1117 12.536 1117 28V60C1117 75.464 1104.46 88 1089 88H28C12.536 88 0 75.464 0 60V28Z" fill="white"/>
<path d="M142.84 33.16C141.144 33.16 139.859 32.696 138.984 31.768C138.12 30.84 137.688 29.5867 137.688 28.008C137.688 26.8773 137.869 25.9067 138.232 25.096C138.605 24.2747 139.171 23.6453 139.928 23.208C140.685 22.76 141.651 22.536 142.824 22.536C143.421 22.536 143.965 22.584 144.456 22.68C144.957 22.7653 145.421 22.8827 145.848 23.032V24.552C145.421 24.3813 144.963 24.2533 144.472 24.168C143.992 24.072 143.485 24.024 142.952 24.024C141.672 24.024 140.765 24.3653 140.232 25.048C139.709 25.7307 139.448 26.7173 139.448 28.008C139.448 29.2133 139.736 30.1307 140.312 30.76C140.888 31.3787 141.779 31.688 142.984 31.688C143.475 31.688 143.965 31.6507 144.456 31.576C144.957 31.4907 145.427 31.3627 145.864 31.192V32.728C145.437 32.8667 144.973 32.9733 144.472 33.048C143.981 33.1227 143.437 33.16 142.84 33.16ZM150.291 33.16C149.384 33.16 148.686 32.9093 148.195 32.408C147.715 31.9067 147.475 31.1707 147.475 30.2V25.416H149.219V30.2C149.219 30.7653 149.358 31.1813 149.635 31.448C149.912 31.7147 150.339 31.848 150.915 31.848C151.342 31.848 151.736 31.768 152.099 31.608C152.462 31.448 152.776 31.2347 153.043 30.968V25.416H154.771V33H153.187L153.107 32.216C152.766 32.4827 152.36 32.7067 151.891 32.888C151.422 33.0693 150.888 33.16 150.291 33.16ZM156.805 33V25.416H158.405L158.501 26.296C158.864 26.0613 159.296 25.848 159.797 25.656C160.298 25.464 160.794 25.3307 161.285 25.256V26.584C160.986 26.6373 160.661 26.7173 160.309 26.824C159.968 26.92 159.642 27.032 159.333 27.16C159.024 27.2773 158.762 27.4 158.549 27.528V33H156.805ZM162.555 33V25.416H164.155L164.251 26.296C164.614 26.0613 165.046 25.848 165.547 25.656C166.048 25.464 166.544 25.3307 167.035 25.256V26.584C166.736 26.6373 166.411 26.7173 166.059 26.824C165.718 26.92 165.392 27.032 165.083 27.16C164.774 27.2773 164.512 27.4 164.299 27.528V33H162.555ZM171.832 33.16C170.51 33.16 169.486 32.8347 168.76 32.184C168.035 31.5333 167.672 30.536 167.672 29.192C167.672 27.976 167.982 27.016 168.6 26.312C169.219 25.608 170.158 25.256 171.416 25.256C172.568 25.256 173.432 25.56 174.008 26.168C174.595 26.7653 174.888 27.5387 174.888 28.488V29.896H169.336C169.422 30.632 169.688 31.1387 170.136 31.416C170.584 31.6933 171.267 31.832 172.184 31.832C172.568 31.832 172.963 31.7947 173.368 31.72C173.774 31.6453 174.126 31.5493 174.424 31.432V32.712C174.083 32.8613 173.688 32.9733 173.24 33.048C172.803 33.1227 172.334 33.16 171.832 33.16ZM169.336 28.76H173.352V28.232C173.352 27.7093 173.208 27.304 172.92 27.016C172.632 26.7173 172.147 26.568 171.464 26.568C170.654 26.568 170.094 26.744 169.784 27.096C169.486 27.448 169.336 28.0027 169.336 28.76ZM176.586 33V25.416H178.186L178.266 26.216C178.607 25.9493 179.013 25.7253 179.482 25.544C179.962 25.352 180.49 25.256 181.066 25.256C182.047 25.256 182.762 25.4853 183.21 25.944C183.658 26.4027 183.882 27.1173 183.882 28.088V33H182.154V28.168C182.154 27.5813 182.031 27.1707 181.786 26.936C181.551 26.7013 181.103 26.584 180.442 26.584C180.047 26.584 179.658 26.664 179.274 26.824C178.901 26.984 178.586 27.192 178.33 27.448V33H176.586ZM188.732 33.16C187.921 33.16 187.313 32.9467 186.908 32.52C186.513 32.0827 186.316 31.4907 186.316 30.744V26.776H185.196V25.416H186.316V23.672L188.044 23.144V25.416H190.06L189.948 26.776H188.044V30.648C188.044 31.0853 188.145 31.3947 188.348 31.576C188.551 31.7467 188.881 31.832 189.34 31.832C189.628 31.832 189.932 31.7787 190.252 31.672V32.904C189.836 33.0747 189.329 33.16 188.732 33.16ZM200.106 33.16C198.41 33.16 197.124 32.696 196.25 31.768C195.386 30.84 194.954 29.5867 194.954 28.008C194.954 26.8773 195.135 25.9067 195.498 25.096C195.871 24.2747 196.436 23.6453 197.194 23.208C197.951 22.76 198.916 22.536 200.09 22.536C200.687 22.536 201.231 22.584 201.722 22.68C202.223 22.7653 202.687 22.8827 203.114 23.032V24.552C202.687 24.3813 202.228 24.2533 201.738 24.168C201.258 24.072 200.751 24.024 200.218 24.024C198.938 24.024 198.031 24.3653 197.498 25.048C196.975 25.7307 196.714 26.7173 196.714 28.008C196.714 29.2133 197.002 30.1307 197.578 30.76C198.154 31.3787 199.044 31.688 200.25 31.688C200.74 31.688 201.231 31.6507 201.722 31.576C202.223 31.4907 202.692 31.3627 203.13 31.192V32.728C202.703 32.8667 202.239 32.9733 201.738 33.048C201.247 33.1227 200.703 33.16 200.106 33.16ZM208.406 33.16C207.04 33.16 206.038 32.8187 205.398 32.136C204.768 31.4533 204.454 30.4773 204.454 29.208C204.454 27.9387 204.774 26.9627 205.414 26.28C206.054 25.5973 207.051 25.256 208.406 25.256C209.771 25.256 210.774 25.5973 211.414 26.28C212.054 26.9627 212.374 27.9387 212.374 29.208C212.374 30.4773 212.054 31.4533 211.414 32.136C210.784 32.8187 209.782 33.16 208.406 33.16ZM208.406 31.688C209.206 31.688 209.771 31.496 210.102 31.112C210.443 30.7173 210.614 30.0827 210.614 29.208C210.614 28.3333 210.443 27.704 210.102 27.32C209.771 26.936 209.206 26.744 208.406 26.744C207.616 26.744 207.051 26.936 206.71 27.32C206.379 27.704 206.214 28.3333 206.214 29.208C206.214 30.0827 206.379 30.7173 206.71 31.112C207.051 31.496 207.616 31.688 208.406 31.688ZM214.398 23.832V22.392H216.302V23.832H214.398ZM214.542 33V26.744H213.39L213.55 25.416H216.286V33H214.542ZM218.321 33V25.416H219.921L220.001 26.216C220.342 25.9493 220.747 25.7253 221.217 25.544C221.697 25.352 222.225 25.256 222.801 25.256C223.782 25.256 224.497 25.4853 224.945 25.944C225.393 26.4027 225.617 27.1173 225.617 28.088V33H223.889V28.168C223.889 27.5813 223.766 27.1707 223.521 26.936C223.286 26.7013 222.838 26.584 222.177 26.584C221.782 26.584 221.393 26.664 221.009 26.824C220.635 26.984 220.321 27.192 220.065 27.448V33H218.321Z" fill="black"/>
<path d="M137.688 77V76.136C137.965 75.4853 138.349 74.8987 138.84 74.376C139.341 73.8533 139.875 73.3467 140.44 72.856C140.867 72.4827 141.219 72.168 141.496 71.912C141.784 71.6453 142.008 71.4053 142.168 71.192C142.328 70.9787 142.44 70.76 142.504 70.536C142.568 70.3013 142.6 70.0293 142.6 69.72C142.6 69.1653 142.44 68.744 142.12 68.456C141.8 68.168 141.267 68.024 140.52 68.024C140.115 68.024 139.699 68.0667 139.272 68.152C138.856 68.2373 138.456 68.3547 138.072 68.504V66.968C138.445 66.84 138.888 66.7387 139.4 66.664C139.912 66.5787 140.397 66.536 140.856 66.536C142.008 66.536 142.877 66.8187 143.464 67.384C144.051 67.9493 144.344 68.7227 144.344 69.704C144.344 70.1947 144.259 70.632 144.088 71.016C143.917 71.3893 143.683 71.7467 143.384 72.088C143.085 72.4187 142.739 72.76 142.344 73.112C141.853 73.5387 141.389 73.9547 140.952 74.36C140.525 74.7547 140.179 75.1867 139.912 75.656H144.456V77H137.688ZM150.357 77.288C149.269 77.288 148.394 77.08 147.733 76.664C147.071 76.2373 146.586 75.6293 146.277 74.84C145.978 74.04 145.829 73.0853 145.829 71.976C145.829 70.824 145.973 69.8427 146.261 69.032C146.559 68.2213 147.039 67.6027 147.701 67.176C148.362 66.7493 149.247 66.536 150.357 66.536C151.466 66.536 152.346 66.7493 152.997 67.176C153.658 67.6027 154.133 68.2213 154.421 69.032C154.719 69.8427 154.869 70.824 154.869 71.976C154.869 73.0853 154.719 74.04 154.421 74.84C154.122 75.6293 153.642 76.2373 152.981 76.664C152.319 77.08 151.445 77.288 150.357 77.288ZM150.357 75.8C151.381 75.8 152.095 75.464 152.501 74.792C152.906 74.1093 153.109 73.1707 153.109 71.976C153.109 70.7067 152.911 69.7307 152.517 69.048C152.122 68.3653 151.402 68.024 150.357 68.024C149.311 68.024 148.586 68.3653 148.181 69.048C147.786 69.7307 147.589 70.7067 147.589 71.976C147.589 73.1707 147.791 74.1093 148.197 74.792C148.602 75.464 149.322 75.8 150.357 75.8ZM160.779 77.288C159.691 77.288 158.816 77.08 158.155 76.664C157.493 76.2373 157.008 75.6293 156.699 74.84C156.4 74.04 156.251 73.0853 156.251 71.976C156.251 70.824 156.395 69.8427 156.683 69.032C156.981 68.2213 157.461 67.6027 158.123 67.176C158.784 66.7493 159.669 66.536 160.779 66.536C161.888 66.536 162.768 66.7493 163.419 67.176C164.08 67.6027 164.555 68.2213 164.843 69.032C165.141 69.8427 165.291 70.824 165.291 71.976C165.291 73.0853 165.141 74.04 164.843 74.84C164.544 75.6293 164.064 76.2373 163.403 76.664C162.741 77.08 161.867 77.288 160.779 77.288ZM160.779 75.8C161.803 75.8 162.517 75.464 162.923 74.792C163.328 74.1093 163.531 73.1707 163.531 71.976C163.531 70.7067 163.333 69.7307 162.939 69.048C162.544 68.3653 161.824 68.024 160.779 68.024C159.733 68.024 159.008 68.3653 158.603 69.048C158.208 69.7307 158.011 70.7067 158.011 71.976C158.011 73.1707 158.213 74.1093 158.619 74.792C159.024 75.464 159.744 75.8 160.779 75.8Z" fill="black"/>
<path d="M978.68 32V23.056H975.384V21.696H983.704V23.056H980.424V32H978.68ZM987.218 32.16C985.853 32.16 984.85 31.8187 984.21 31.136C983.581 30.4533 983.266 29.4773 983.266 28.208C983.266 26.9387 983.586 25.9627 984.226 25.28C984.866 24.5973 985.863 24.256 987.218 24.256C988.583 24.256 989.586 24.5973 990.226 25.28C990.866 25.9627 991.186 26.9387 991.186 28.208C991.186 29.4773 990.866 30.4533 990.226 31.136C989.597 31.8187 988.594 32.16 987.218 32.16ZM987.218 30.688C988.018 30.688 988.583 30.496 988.914 30.112C989.255 29.7173 989.426 29.0827 989.426 28.208C989.426 27.3333 989.255 26.704 988.914 26.32C988.583 25.936 988.018 25.744 987.218 25.744C986.429 25.744 985.863 25.936 985.522 26.32C985.191 26.704 985.026 27.3333 985.026 28.208C985.026 29.0827 985.191 29.7173 985.522 30.112C985.863 30.496 986.429 30.688 987.218 30.688ZM995.779 32.16C994.968 32.16 994.36 31.9467 993.955 31.52C993.56 31.0827 993.363 30.4907 993.363 29.744V25.776H992.243V24.416H993.363V22.672L995.091 22.144V24.416H997.107L996.995 25.776H995.091V29.648C995.091 30.0853 995.192 30.3947 995.395 30.576C995.598 30.7467 995.928 30.832 996.387 30.832C996.675 30.832 996.979 30.7787 997.299 30.672V31.904C996.883 32.0747 996.376 32.16 995.779 32.16ZM1001 32.16C1000.52 32.16 1000.07 32.0747 999.657 31.904C999.252 31.7333 998.926 31.4773 998.681 31.136C998.436 30.784 998.313 30.352 998.313 29.84C998.313 29.1147 998.558 28.5333 999.049 28.096C999.55 27.648 1000.32 27.424 1001.35 27.424H1003.79V27.088C1003.79 26.7253 1003.73 26.4373 1003.61 26.224C1003.5 26.0107 1003.3 25.856 1003 25.76C1002.71 25.664 1002.29 25.616 1001.72 25.616C1000.83 25.616 999.988 25.7493 999.209 26.016V24.72C999.55 24.5813 999.966 24.4693 1000.46 24.384C1000.95 24.2987 1001.48 24.256 1002.04 24.256C1003.15 24.256 1003.99 24.48 1004.57 24.928C1005.16 25.376 1005.45 26.1067 1005.45 27.12V32H1003.96L1003.85 31.232C1003.54 31.5307 1003.16 31.76 1002.7 31.92C1002.25 32.08 1001.68 32.16 1001 32.16ZM1001.47 30.912C1001.99 30.912 1002.44 30.8267 1002.83 30.656C1003.22 30.4747 1003.54 30.2347 1003.79 29.936V28.608H1001.39C1000.87 28.608 1000.5 28.7093 1000.27 28.912C1000.04 29.104 999.929 29.4027 999.929 29.808C999.929 30.2027 1000.06 30.4853 1000.33 30.656C1000.6 30.8267 1000.97 30.912 1001.47 30.912ZM1009.27 32.16C1008.65 32.16 1008.18 32.0107 1007.86 31.712C1007.54 31.4027 1007.38 30.896 1007.38 30.192V21.216H1009.13V30.032C1009.13 30.3307 1009.18 30.5333 1009.29 30.64C1009.39 30.7467 1009.55 30.8 1009.77 30.8C1010.02 30.8 1010.27 30.768 1010.5 30.704V31.968C1010.3 32.0427 1010.1 32.0907 1009.91 32.112C1009.73 32.144 1009.52 32.16 1009.27 32.16ZM1020.39 32.16C1018.69 32.16 1017.41 31.696 1016.53 30.768C1015.67 29.84 1015.23 28.5867 1015.23 27.008C1015.23 25.8773 1015.42 24.9067 1015.78 24.096C1016.15 23.2747 1016.72 22.6453 1017.47 22.208C1018.23 21.76 1019.2 21.536 1020.37 21.536C1020.97 21.536 1021.51 21.584 1022 21.68C1022.5 21.7653 1022.97 21.8827 1023.39 22.032V23.552C1022.97 23.3813 1022.51 23.2533 1022.02 23.168C1021.54 23.072 1021.03 23.024 1020.5 23.024C1019.22 23.024 1018.31 23.3653 1017.78 24.048C1017.26 24.7307 1016.99 25.7173 1016.99 27.008C1016.99 28.2133 1017.28 29.1307 1017.86 29.76C1018.43 30.3787 1019.33 30.688 1020.53 30.688C1021.02 30.688 1021.51 30.6507 1022 30.576C1022.5 30.4907 1022.97 30.3627 1023.41 30.192V31.728C1022.98 31.8667 1022.52 31.9733 1022.02 32.048C1021.53 32.1227 1020.98 32.16 1020.39 32.16ZM1028.69 32.16C1027.32 32.16 1026.32 31.8187 1025.68 31.136C1025.05 30.4533 1024.73 29.4773 1024.73 28.208C1024.73 26.9387 1025.05 25.9627 1025.69 25.28C1026.33 24.5973 1027.33 24.256 1028.69 24.256C1030.05 24.256 1031.05 24.5973 1031.69 25.28C1032.33 25.9627 1032.65 26.9387 1032.65 28.208C1032.65 29.4773 1032.33 30.4533 1031.69 31.136C1031.07 31.8187 1030.06 32.16 1028.69 32.16ZM1028.69 30.688C1029.49 30.688 1030.05 30.496 1030.38 30.112C1030.72 29.7173 1030.89 29.0827 1030.89 28.208C1030.89 27.3333 1030.72 26.704 1030.38 26.32C1030.05 25.936 1029.49 25.744 1028.69 25.744C1027.9 25.744 1027.33 25.936 1026.99 26.32C1026.66 26.704 1026.49 27.3333 1026.49 28.208C1026.49 29.0827 1026.66 29.7173 1026.99 30.112C1027.33 30.496 1027.9 30.688 1028.69 30.688ZM1034.68 22.832V21.392H1036.58V22.832H1034.68ZM1034.82 32V25.744H1033.67L1033.83 24.416H1036.57V32H1034.82ZM1038.6 32V24.416H1040.2L1040.28 25.216C1040.62 24.9493 1041.03 24.7253 1041.5 24.544C1041.98 24.352 1042.51 24.256 1043.08 24.256C1044.06 24.256 1044.78 24.4853 1045.23 24.944C1045.67 25.4027 1045.9 26.1173 1045.9 27.088V32H1044.17V27.168C1044.17 26.5813 1044.05 26.1707 1043.8 25.936C1043.57 25.7013 1043.12 25.584 1042.46 25.584C1042.06 25.584 1041.67 25.664 1041.29 25.824C1040.92 25.984 1040.6 26.192 1040.35 26.448V32H1038.6Z" fill="black"/>
<path d="M975.688 76V75.136C975.965 74.4853 976.349 73.8987 976.84 73.376C977.341 72.8533 977.875 72.3467 978.44 71.856C978.867 71.4827 979.219 71.168 979.496 70.912C979.784 70.6453 980.008 70.4053 980.168 70.192C980.328 69.9787 980.44 69.76 980.504 69.536C980.568 69.3013 980.6 69.0293 980.6 68.72C980.6 68.1653 980.44 67.744 980.12 67.456C979.8 67.168 979.267 67.024 978.52 67.024C978.115 67.024 977.699 67.0667 977.272 67.152C976.856 67.2373 976.456 67.3547 976.072 67.504V65.968C976.445 65.84 976.888 65.7387 977.4 65.664C977.912 65.5787 978.397 65.536 978.856 65.536C980.008 65.536 980.877 65.8187 981.464 66.384C982.051 66.9493 982.344 67.7227 982.344 68.704C982.344 69.1947 982.259 69.632 982.088 70.016C981.917 70.3893 981.683 70.7467 981.384 71.088C981.085 71.4187 980.739 71.76 980.344 72.112C979.853 72.5387 979.389 72.9547 978.952 73.36C978.525 73.7547 978.179 74.1867 977.912 74.656H982.456V76H975.688ZM986.741 76.16C986.282 76.16 985.781 76.1227 985.237 76.048C984.693 75.9733 984.239 75.856 983.877 75.696V74.176C984.25 74.336 984.677 74.4587 985.157 74.544C985.637 74.6293 986.09 74.672 986.517 74.672C987.338 74.672 987.941 74.5333 988.325 74.256C988.719 73.968 988.917 73.4987 988.917 72.848C988.917 72.2507 988.778 71.808 988.501 71.52C988.223 71.232 987.679 71.088 986.869 71.088H983.829V70.032L984.101 65.696H989.957L989.813 67.04H985.573L985.397 69.744H987.141C988.367 69.744 989.263 70.0053 989.829 70.528C990.394 71.0507 990.677 71.8347 990.677 72.88C990.677 73.8933 990.346 74.6933 989.685 75.28C989.023 75.8667 988.042 76.16 986.741 76.16ZM996.591 76.288C995.503 76.288 994.628 76.08 993.967 75.664C993.306 75.2373 992.82 74.6293 992.511 73.84C992.212 73.04 992.063 72.0853 992.063 70.976C992.063 69.824 992.207 68.8427 992.495 68.032C992.794 67.2213 993.274 66.6027 993.935 66.176C994.596 65.7493 995.482 65.536 996.591 65.536C997.7 65.536 998.58 65.7493 999.231 66.176C999.892 66.6027 1000.37 67.2213 1000.66 68.032C1000.95 68.8427 1001.1 69.824 1001.1 70.976C1001.1 72.0853 1000.95 73.04 1000.66 73.84C1000.36 74.6293 999.876 75.2373 999.215 75.664C998.554 76.08 997.679 76.288 996.591 76.288ZM996.591 74.8C997.615 74.8 998.33 74.464 998.735 73.792C999.14 73.1093 999.343 72.1707 999.343 70.976C999.343 69.7067 999.146 68.7307 998.751 68.048C998.356 67.3653 997.636 67.024 996.591 67.024C995.546 67.024 994.82 67.3653 994.415 68.048C994.02 68.7307 993.823 69.7067 993.823 70.976C993.823 72.1707 994.026 73.1093 994.431 73.792C994.836 74.464 995.556 74.8 996.591 74.8Z" fill="black"/>
<path d="M557.008 38V27.696H564.192V29.056H558.752V32.176H563.6V33.52H558.752V36.656H564.192V38H557.008ZM564.871 38L567.767 34.144L564.983 30.416H566.855L568.711 32.944L570.567 30.416H572.439L569.671 34.144L572.551 38H570.663L568.711 35.36L566.759 38H564.871ZM577.049 38.16C575.715 38.16 574.707 37.824 574.025 37.152C573.342 36.4693 573.001 35.488 573.001 34.208C573.001 32.8747 573.374 31.8827 574.121 31.232C574.878 30.5813 575.886 30.256 577.145 30.256C577.667 30.256 578.105 30.2933 578.457 30.368C578.819 30.4427 579.166 30.56 579.497 30.72V32.016C578.942 31.7387 578.27 31.6 577.481 31.6C576.606 31.6 575.934 31.7973 575.465 32.192C574.995 32.576 574.761 33.248 574.761 34.208C574.761 35.1147 574.969 35.7813 575.385 36.208C575.801 36.624 576.489 36.832 577.449 36.832C578.206 36.832 578.894 36.688 579.513 36.4V37.728C579.161 37.8667 578.782 37.9733 578.377 38.048C577.982 38.1227 577.539 38.16 577.049 38.16ZM580.899 38V27.216H582.643V31.152C582.973 30.8853 583.368 30.672 583.827 30.512C584.285 30.3413 584.803 30.256 585.379 30.256C586.339 30.256 587.048 30.4853 587.507 30.944C587.965 31.4027 588.195 32.1173 588.195 33.088V38H586.467V33.168C586.467 32.5813 586.339 32.1707 586.083 31.936C585.837 31.7013 585.405 31.584 584.787 31.584C584.403 31.584 584.013 31.6693 583.619 31.84C583.224 32 582.899 32.2133 582.643 32.48V38H580.899ZM592.282 38.16C591.802 38.16 591.354 38.0747 590.938 37.904C590.533 37.7333 590.208 37.4773 589.962 37.136C589.717 36.784 589.594 36.352 589.594 35.84C589.594 35.1147 589.84 34.5333 590.33 34.096C590.832 33.648 591.6 33.424 592.634 33.424H595.066V33.088C595.066 32.7253 595.008 32.4373 594.89 32.224C594.784 32.0107 594.581 31.856 594.282 31.76C593.994 31.664 593.568 31.616 593.002 31.616C592.106 31.616 591.269 31.7493 590.49 32.016V30.72C590.832 30.5813 591.248 30.4693 591.738 30.384C592.229 30.2987 592.757 30.256 593.322 30.256C594.432 30.256 595.274 30.48 595.85 30.928C596.437 31.376 596.73 32.1067 596.73 33.12V38H595.242L595.13 37.232C594.821 37.5307 594.437 37.76 593.978 37.92C593.53 38.08 592.965 38.16 592.282 38.16ZM592.746 36.912C593.269 36.912 593.722 36.8267 594.106 36.656C594.501 36.4747 594.821 36.2347 595.066 35.936V34.608H592.666C592.154 34.608 591.781 34.7093 591.546 34.912C591.322 35.104 591.21 35.4027 591.21 35.808C591.21 36.2027 591.344 36.4853 591.61 36.656C591.877 36.8267 592.256 36.912 592.746 36.912ZM598.664 38V30.416H600.264L600.344 31.216C600.686 30.9493 601.091 30.7253 601.56 30.544C602.04 30.352 602.568 30.256 603.144 30.256C604.126 30.256 604.84 30.4853 605.288 30.944C605.736 31.4027 605.96 32.1173 605.96 33.088V38H604.232V33.168C604.232 32.5813 604.11 32.1707 603.864 31.936C603.63 31.7013 603.182 31.584 602.52 31.584C602.126 31.584 601.736 31.664 601.352 31.824C600.979 31.984 600.664 32.192 600.408 32.448V38H598.664ZM610.986 40.816C610.421 40.816 609.856 40.7787 609.29 40.704C608.725 40.64 608.245 40.5387 607.85 40.4V39.056C608.277 39.1947 608.768 39.3013 609.322 39.376C609.877 39.4507 610.405 39.488 610.906 39.488C611.674 39.488 612.234 39.4453 612.586 39.36C612.938 39.2747 613.114 39.0827 613.114 38.784C613.114 38.56 613.029 38.4 612.858 38.304C612.688 38.2187 612.362 38.176 611.882 38.176H609.834C608.458 38.176 607.77 37.6907 607.77 36.72C607.77 36.4107 607.861 36.1227 608.042 35.856C608.224 35.5893 608.512 35.3867 608.906 35.248C608.469 35.0347 608.144 34.7413 607.93 34.368C607.728 33.9947 607.626 33.5467 607.626 33.024C607.626 32.0533 607.914 31.3493 608.49 30.912C609.077 30.4747 609.952 30.256 611.114 30.256C611.36 30.256 611.616 30.2773 611.882 30.32C612.149 30.352 612.357 30.384 612.506 30.416H615.29L615.242 31.552H613.962C614.165 31.7227 614.314 31.936 614.41 32.192C614.506 32.448 614.554 32.7253 614.554 33.024C614.554 33.8347 614.309 34.4747 613.818 34.944C613.328 35.4027 612.586 35.632 611.594 35.632C611.424 35.632 611.264 35.6267 611.114 35.616C610.976 35.5947 610.821 35.5733 610.65 35.552C610.33 35.584 610.042 35.6693 609.786 35.808C609.53 35.9467 609.402 36.1333 609.402 36.368C609.402 36.528 609.466 36.6453 609.594 36.72C609.722 36.784 609.936 36.816 610.234 36.816H612.362C613.12 36.816 613.701 36.9813 614.106 37.312C614.522 37.632 614.73 38.1013 614.73 38.72C614.73 39.4667 614.405 40 613.754 40.32C613.114 40.6507 612.192 40.816 610.986 40.816ZM611.114 34.528C611.808 34.528 612.288 34.4107 612.554 34.176C612.832 33.9413 612.97 33.5413 612.97 32.976C612.97 32.4107 612.832 32 612.554 31.744C612.288 31.488 611.808 31.36 611.114 31.36C610.464 31.36 609.989 31.4827 609.69 31.728C609.392 31.9733 609.242 32.3893 609.242 32.976C609.242 33.52 609.381 33.9147 609.658 34.16C609.946 34.4053 610.432 34.528 611.114 34.528ZM620.457 38.16C619.135 38.16 618.111 37.8347 617.385 37.184C616.66 36.5333 616.297 35.536 616.297 34.192C616.297 32.976 616.607 32.016 617.225 31.312C617.844 30.608 618.783 30.256 620.041 30.256C621.193 30.256 622.057 30.56 622.633 31.168C623.22 31.7653 623.513 32.5387 623.513 33.488V34.896H617.961C618.047 35.632 618.313 36.1387 618.761 36.416C619.209 36.6933 619.892 36.832 620.809 36.832C621.193 36.832 621.588 36.7947 621.993 36.72C622.399 36.6453 622.751 36.5493 623.049 36.432V37.712C622.708 37.8613 622.313 37.9733 621.865 38.048C621.428 38.1227 620.959 38.16 620.457 38.16ZM617.961 33.76H621.977V33.232C621.977 32.7093 621.833 32.304 621.545 32.016C621.257 31.7173 620.772 31.568 620.089 31.568C619.279 31.568 618.719 31.744 618.409 32.096C618.111 32.448 617.961 33.0027 617.961 33.76ZM633.731 38.16C632.035 38.16 630.749 37.696 629.875 36.768C629.011 35.84 628.579 34.5867 628.579 33.008C628.579 31.8773 628.76 30.9067 629.123 30.096C629.496 29.2747 630.061 28.6453 630.819 28.208C631.576 27.76 632.541 27.536 633.715 27.536C634.312 27.536 634.856 27.584 635.347 27.68C635.848 27.7653 636.312 27.8827 636.739 28.032V29.552C636.312 29.3813 635.853 29.2533 635.363 29.168C634.883 29.072 634.376 29.024 633.843 29.024C632.563 29.024 631.656 29.3653 631.123 30.048C630.6 30.7307 630.339 31.7173 630.339 33.008C630.339 34.2133 630.627 35.1307 631.203 35.76C631.779 36.3787 632.669 36.688 633.875 36.688C634.365 36.688 634.856 36.6507 635.347 36.576C635.848 36.4907 636.317 36.3627 636.755 36.192V37.728C636.328 37.8667 635.864 37.9733 635.363 38.048C634.872 38.1227 634.328 38.16 633.731 38.16ZM642.031 38.16C640.665 38.16 639.663 37.8187 639.023 37.136C638.393 36.4533 638.079 35.4773 638.079 34.208C638.079 32.9387 638.399 31.9627 639.039 31.28C639.679 30.5973 640.676 30.256 642.031 30.256C643.396 30.256 644.399 30.5973 645.039 31.28C645.679 31.9627 645.999 32.9387 645.999 34.208C645.999 35.4773 645.679 36.4533 645.039 37.136C644.409 37.8187 643.407 38.16 642.031 38.16ZM642.031 36.688C642.831 36.688 643.396 36.496 643.727 36.112C644.068 35.7173 644.239 35.0827 644.239 34.208C644.239 33.3333 644.068 32.704 643.727 32.32C643.396 31.936 642.831 31.744 642.031 31.744C641.241 31.744 640.676 31.936 640.335 32.32C640.004 32.704 639.839 33.3333 639.839 34.208C639.839 35.0827 640.004 35.7173 640.335 36.112C640.676 36.496 641.241 36.688 642.031 36.688ZM648.023 28.832V27.392H649.927V28.832H648.023ZM648.167 38V31.744H647.015L647.175 30.416H649.911V38H648.167ZM651.946 38V30.416H653.546L653.626 31.216C653.967 30.9493 654.372 30.7253 654.842 30.544C655.322 30.352 655.85 30.256 656.426 30.256C657.407 30.256 658.122 30.4853 658.57 30.944C659.018 31.4027 659.242 32.1173 659.242 33.088V38H657.514V33.168C657.514 32.5813 657.391 32.1707 657.146 31.936C656.911 31.7013 656.463 31.584 655.802 31.584C655.407 31.584 655.018 31.664 654.634 31.824C654.26 31.984 653.946 32.192 653.69 32.448V38H651.946Z" fill="black"/>
<path d="M559.6 82.16C559.141 82.16 558.64 82.1227 558.096 82.048C557.552 81.9733 557.099 81.856 556.736 81.696V80.176C557.109 80.336 557.536 80.4587 558.016 80.544C558.496 80.6293 558.949 80.672 559.376 80.672C560.197 80.672 560.8 80.5333 561.184 80.256C561.579 79.968 561.776 79.4987 561.776 78.848C561.776 78.2507 561.637 77.808 561.36 77.52C561.083 77.232 560.539 77.088 559.728 77.088H556.688V76.032L556.96 71.696H562.816L562.672 73.04H558.432L558.256 75.744H560C561.227 75.744 562.123 76.0053 562.688 76.528C563.253 77.0507 563.536 77.8347 563.536 78.88C563.536 79.8933 563.205 80.6933 562.544 81.28C561.883 81.8667 560.901 82.16 559.6 82.16ZM569.45 82.288C568.362 82.288 567.488 82.08 566.826 81.664C566.165 81.2373 565.68 80.6293 565.37 79.84C565.072 79.04 564.922 78.0853 564.922 76.976C564.922 75.824 565.066 74.8427 565.354 74.032C565.653 73.2213 566.133 72.6027 566.794 72.176C567.456 71.7493 568.341 71.536 569.45 71.536C570.56 71.536 571.44 71.7493 572.09 72.176C572.752 72.6027 573.226 73.2213 573.514 74.032C573.813 74.8427 573.962 75.824 573.962 76.976C573.962 78.0853 573.813 79.04 573.514 79.84C573.216 80.6293 572.736 81.2373 572.074 81.664C571.413 82.08 570.538 82.288 569.45 82.288ZM569.45 80.8C570.474 80.8 571.189 80.464 571.594 79.792C572 79.1093 572.202 78.1707 572.202 76.976C572.202 75.7067 572.005 74.7307 571.61 74.048C571.216 73.3653 570.496 73.024 569.45 73.024C568.405 73.024 567.68 73.3653 567.274 74.048C566.88 74.7307 566.682 75.7067 566.682 76.976C566.682 78.1707 566.885 79.1093 567.29 79.792C567.696 80.464 568.416 80.8 569.45 80.8Z" fill="black"/>
<path d="M530.571 24C525.314 24 521.048 28.3707 521.048 33.7561C521.048 39.1415 525.314 43.5122 530.571 43.5122C535.829 43.5122 540.095 39.1415 540.095 33.7561C540.095 28.3707 535.829 24 530.571 24ZM530.571 39.6098C527.41 39.6098 524.857 36.9951 524.857 33.7561C524.857 30.5171 527.41 27.9024 530.571 27.9024C533.733 27.9024 536.286 30.5171 536.286 33.7561C536.286 36.9951 533.733 39.6098 530.571 39.6098ZM536.286 51.3171H532.476C532.476 48.9756 531.048 46.8683 528.914 46.0488L517.181 41.561H502V63.0244H513.429V60.2146L526.762 64L542 59.122V57.1707C542 53.9317 539.448 51.3171 536.286 51.3171ZM509.619 59.122H505.81V45.4634H509.619V59.122ZM526.705 59.922L513.429 56.1951V45.4634H516.495L527.581 49.6976C528.229 49.9512 528.667 50.5951 528.667 51.3171C528.667 51.3171 524.857 51.2195 524.286 51.0244L519.752 49.4829L518.552 53.1902L523.086 54.7317C524.057 55.0634 525.067 55.2195 526.095 55.2195H536.286C537.029 55.2195 537.695 55.6878 538 56.3317L526.705 59.922Z" fill="black"/>
<path d="M963 56.0627C962.63 51.3588 961.422 46.7715 959.44 42.5429C957.541 38.7218 954.806 35.4373 951.462 32.9642L954.492 25.897C954.589 25.6858 954.633 25.4511 954.617 25.2165C954.602 24.9819 954.528 24.7559 954.403 24.5611C954.288 24.3903 954.137 24.2504 953.962 24.153C953.786 24.0555 953.591 24.0031 953.393 24H932.779C932.567 23.9994 932.358 24.0555 932.171 24.163C931.985 24.2705 931.827 24.426 931.713 24.6151C931.598 24.8042 931.531 25.0208 931.516 25.2449C931.502 25.4689 931.541 25.6932 931.63 25.897L934.723 32.9909C931.403 35.4663 928.686 38.74 926.795 42.5429C924.081 47.8867 923.235 54.4195 923.008 58.9484C922.971 59.6114 923.064 60.2754 923.281 60.8985C923.498 61.5216 923.835 62.0903 924.27 62.5688C924.728 63.039 925.269 63.4077 925.863 63.6531C926.457 63.8986 927.092 64.016 927.729 63.9983H935.556V61.4065H927.628C927.343 61.4056 927.06 61.3436 926.798 61.2242C926.535 61.1048 926.298 60.9305 926.101 60.7118C925.903 60.4949 925.751 60.2366 925.653 59.9537C925.555 59.6707 925.514 59.3693 925.533 59.0686C925.709 55.5818 926.404 48.9421 929.017 43.772C930.859 40.0676 933.583 36.9362 936.919 34.6876H938.182C937.326 35.94 936.538 37.2424 935.821 38.5885C935.091 40.021 934.47 41.5131 933.965 43.0506L935.695 44.2797C936.206 42.6845 936.835 41.1345 937.576 39.6439C938.486 37.9108 939.52 36.2538 940.669 34.6876H941.931C942.778 36.8296 943.376 39.0726 943.711 41.3673C943.985 43.0708 944.12 44.7961 944.115 46.5241L946.109 45.0412C946.054 43.6976 945.919 42.3591 945.705 41.0333C945.367 38.8667 944.825 36.741 944.09 34.6876H945.074L946.223 32.0157H937.083L934.748 26.6719H951.424L948.268 33.9795C948.809 34.2862 949.328 34.6345 949.821 35.0216C952.914 37.2798 955.45 40.2896 957.218 43.7987C958.989 47.6465 960.088 51.8013 960.463 56.0627H963Z" fill="black"/>
<path d="M950.946 57H944.946C944.681 57 944.427 57.1054 944.239 57.2929C944.052 57.4804 943.946 57.7348 943.946 58C943.946 58.2652 944.052 58.5196 944.239 58.7071C944.427 58.8946 944.681 59 944.946 59H950.946C951.212 59 951.466 58.8946 951.653 58.7071C951.841 58.5196 951.946 58.2652 951.946 58C951.946 57.7348 951.841 57.4804 951.653 57.2929C951.466 57.1054 951.212 57 950.946 57Z" fill="black"/>
<path d="M96.3334 49.0002V45.6668C95.0073 45.6668 93.7355 45.14 92.7978 44.2024C91.8602 43.2647 91.3334 41.9929 91.3334 40.6668C91.3334 39.3407 91.8602 38.069 92.7978 37.1313C93.7355 36.1936 95.0073 35.6668 96.3334 35.6668V34.0002C96.3334 33.5581 96.509 33.1342 96.8215 32.8217C97.1341 32.5091 97.558 32.3335 98 32.3335C98.4421 32.3335 98.866 32.5091 99.1786 32.8217C99.4911 33.1342 99.6667 33.5581 99.6667 34.0002V35.6668H99.7034C101.02 35.6668 102.282 36.1897 103.213 37.1206C104.144 38.0514 104.667 39.3138 104.667 40.6302C104.667 41.0722 104.491 41.4961 104.179 41.8087C103.866 42.1212 103.442 42.2968 103 42.2968C102.558 42.2968 102.134 42.1212 101.822 41.8087C101.509 41.4961 101.333 41.0722 101.333 40.6302C101.333 40.1979 101.162 39.7833 100.856 39.4776C100.55 39.1719 100.136 39.0002 99.7034 39.0002H99.6667V42.3335C100.993 42.3335 102.265 42.8603 103.202 43.798C104.14 44.7356 104.667 46.0074 104.667 47.3335C104.667 48.6596 104.14 49.9313 103.202 50.869C102.265 51.8067 100.993 52.3335 99.6667 52.3335V54.0002C99.6667 54.4422 99.4911 54.8661 99.1786 55.1787C98.866 55.4912 98.4421 55.6668 98 55.6668C97.558 55.6668 97.1341 55.4912 96.8215 55.1787C96.509 54.8661 96.3334 54.4422 96.3334 54.0002V52.3335H96.2484C94.9448 52.3335 93.6947 51.8157 92.7729 50.8939C91.8512 49.9722 91.3334 48.722 91.3334 47.4185C91.3334 46.9765 91.509 46.5525 91.8215 46.24C92.1341 45.9274 92.558 45.7518 93 45.7518C93.4421 45.7518 93.866 45.9274 94.1786 46.24C94.4911 46.5525 94.6667 46.9765 94.6667 47.4185C94.6671 47.8378 94.8339 48.2399 95.1305 48.5364C95.427 48.8329 95.829 48.9997 96.2484 49.0002H96.3334ZM99.6667 49.0002C100.109 49.0002 100.533 48.8246 100.845 48.512C101.158 48.1994 101.333 47.7755 101.333 47.3335C101.333 46.8915 101.158 46.4675 100.845 46.155C100.533 45.8424 100.109 45.6668 99.6667 45.6668V49.0002ZM96.3334 39.0002C95.8913 39.0002 95.4674 39.1758 95.1549 39.4883C94.8423 39.8009 94.6667 40.2248 94.6667 40.6668C94.6667 41.1089 94.8423 41.5328 95.1549 41.8453C95.4674 42.1579 95.8913 42.3335 96.3334 42.3335V39.0002ZM98 60.6668C88.795 60.6668 81.3334 53.2052 81.3334 44.0002C81.3334 34.7952 88.795 27.3335 98 27.3335C107.205 27.3335 114.667 34.7952 114.667 44.0002C114.667 53.2052 107.205 60.6668 98 60.6668ZM98 57.3335C101.536 57.3335 104.928 55.9287 107.428 53.4283C109.929 50.9278 111.333 47.5364 111.333 44.0002C111.333 40.4639 109.929 37.0726 107.428 34.5721C104.928 32.0716 101.536 30.6668 98 30.6668C94.4638 30.6668 91.0724 32.0716 88.572 34.5721C86.0715 37.0726 84.6667 40.4639 84.6667 44.0002C84.6667 47.5364 86.0715 50.9278 88.572 53.4283C91.0724 55.9287 94.4638 57.3335 98 57.3335Z" fill="black"/>
<path d="M951.486 49H945.486C945.221 49 944.967 49.1054 944.779 49.2929C944.592 49.4804 944.486 49.7348 944.486 50C944.486 50.2652 944.592 50.5196 944.779 50.7071C944.967 50.8946 945.221 51 945.486 51H951.486C951.752 51 952.006 50.8946 952.193 50.7071C952.381 50.5196 952.486 50.2652 952.486 50C952.486 49.7348 952.381 49.4804 952.193 49.2929C952.006 49.1054 951.752 49 951.486 49Z" fill="black"/>
</svg>
