<svg width="40" height="40" viewBox="0 0 40 40" fill="none" xmlns="http://www.w3.org/2000/svg">
<g clip-path="url(#clip0_359_196)">
<path d="M27.9551 0.0200023C27.8701 -0.0749977 24.8076 0.0575023 22.1426 2.95C19.4776 5.84 19.8876 9.155 19.9476 9.24C20.0076 9.325 23.7476 9.4575 26.1351 6.095C28.5226 2.7325 28.0401 0.117502 27.9551 0.0200023ZM36.2401 29.3525C36.1201 29.1125 30.4276 26.2675 30.9576 20.7975C31.4876 15.325 35.1451 13.825 35.2026 13.6625C35.2601 13.5 33.7101 11.6875 32.0676 10.77C30.8616 10.1231 29.5269 9.75252 28.1601 9.685C27.8901 9.6775 26.9526 9.4475 25.0251 9.975C23.7551 10.3225 20.8926 11.4475 20.1051 11.4925C19.3151 11.5375 16.9651 10.1875 14.4376 9.83C12.8201 9.5175 11.1051 10.1575 9.87756 10.65C8.65256 11.14 6.32256 12.535 4.69256 16.2425C3.06256 19.9475 3.91506 25.8175 4.52506 27.6425C5.13506 29.465 6.08756 32.4525 7.70756 34.6325C9.14756 37.0925 11.0576 38.8 11.8551 39.38C12.6526 39.96 14.9026 40.345 16.4626 39.5475C17.7176 38.7775 19.9826 38.335 20.8776 38.3675C21.7701 38.4 23.5301 38.7525 25.3326 39.715C26.7601 40.2075 28.1101 40.0025 29.4626 39.4525C30.8151 38.9 32.7726 36.805 35.0576 32.5575C35.9251 30.5825 36.3201 29.515 36.2401 29.3525Z" fill="black"/>
<path d="M27.9551 0.0200023C27.8701 -0.0749977 24.8076 0.0575023 22.1426 2.95C19.4776 5.84 19.8876 9.155 19.9476 9.24C20.0076 9.325 23.7476 9.4575 26.1351 6.095C28.5226 2.7325 28.0401 0.117502 27.9551 0.0200023ZM36.2401 29.3525C36.1201 29.1125 30.4276 26.2675 30.9576 20.7975C31.4876 15.325 35.1451 13.825 35.2026 13.6625C35.2601 13.5 33.7101 11.6875 32.0676 10.77C30.8616 10.1231 29.5269 9.75252 28.1601 9.685C27.8901 9.6775 26.9526 9.4475 25.0251 9.975C23.7551 10.3225 20.8926 11.4475 20.1051 11.4925C19.3151 11.5375 16.9651 10.1875 14.4376 9.83C12.8201 9.5175 11.1051 10.1575 9.87756 10.65C8.65256 11.14 6.32256 12.535 4.69256 16.2425C3.06256 19.9475 3.91506 25.8175 4.52506 27.6425C5.13506 29.465 6.08756 32.4525 7.70756 34.6325C9.14756 37.0925 11.0576 38.8 11.8551 39.38C12.6526 39.96 14.9026 40.345 16.4626 39.5475C17.7176 38.7775 19.9826 38.335 20.8776 38.3675C21.7701 38.4 23.5301 38.7525 25.3326 39.715C26.7601 40.2075 28.1101 40.0025 29.4626 39.4525C30.8151 38.9 32.7726 36.805 35.0576 32.5575C35.9251 30.5825 36.3201 29.515 36.2401 29.3525Z" fill="black"/>
</g>
<defs>
<clipPath id="clip0_359_196">
<rect width="40" height="40" fill="white"/>
</clipPath>
</defs>
</svg>
