<svg width="5" height="13" viewBox="0 0 5 13" fill="none" xmlns="http://www.w3.org/2000/svg">
<path fill-rule="evenodd" clip-rule="evenodd" d="M2.94368 3.75331C4.02008 3.75331 4.90078 3.12886 4.90078 2.36565C4.90078 1.60243 4.02008 0.977982 2.94368 0.977982C1.86727 0.977982 0.986572 1.60243 0.986572 2.36565C0.986572 3.12886 1.86727 3.75331 2.94368 3.75331ZM2.9437 5.14097C1.86729 5.14097 0.986591 5.76542 0.986591 6.52864C0.986591 7.29185 1.86729 7.9163 2.9437 7.9163C4.0201 7.9163 4.9008 7.29185 4.9008 6.52864C4.9008 5.76542 4.0201 5.14097 2.9437 5.14097ZM2.9437 9.30397C1.86729 9.30397 0.986591 9.92842 0.986591 10.6916C0.986591 11.4549 1.86729 12.0793 2.9437 12.0793C4.0201 12.0793 4.9008 11.4549 4.9008 10.6916C4.9008 9.92842 4.0201 9.30397 2.9437 9.30397Z" fill="#3F3D56"/>
</svg>
