<svg width="18" height="23" viewBox="0 0 18 23" fill="none" xmlns="http://www.w3.org/2000/svg">
<path fill-rule="evenodd" clip-rule="evenodd" d="M11.5709 13.6757H10.9963L10.7927 13.4152C11.5054 12.3153 11.9345 10.8873 11.9345 9.33394C11.9345 5.87018 9.81816 3.0625 7.20725 3.0625C4.59634 3.0625 2.47998 5.87018 2.47998 9.33394C2.47998 12.7977 4.59634 15.6054 7.20725 15.6054C8.37816 15.6054 9.45453 15.0361 10.2836 14.0906L10.48 14.3607V15.123L14.1163 19.9375L15.2 18.4999L11.5709 13.6757ZM7.20725 13.6757C5.39634 13.6757 3.93453 11.7364 3.93453 9.33394C3.93453 6.9315 5.39634 4.99217 7.20725 4.99217C9.01816 4.99217 10.48 6.9315 10.48 9.33394C10.48 11.7364 9.01816 13.6757 7.20725 13.6757Z" fill="#3F3D56"/>
</svg>
