<svg width="25" height="25" viewBox="0 0 25 25" fill="none" xmlns="http://www.w3.org/2000/svg">
<path d="M12.5 21.3542C17.6776 21.3542 21.875 17.0198 21.875 14.0625C21.875 11.1052 17.6776 6.77087 12.5 6.77087C7.3224 6.77087 3.125 11.1084 3.125 14.0625C3.125 17.0167 7.3224 21.3542 12.5 21.3542Z" stroke="#545454" stroke-width="2.91667" stroke-linejoin="round"/>
<path d="M12.5 17.1875C13.3288 17.1875 14.1237 16.8583 14.7097 16.2722C15.2958 15.6862 15.625 14.8913 15.625 14.0625C15.625 13.2337 15.2958 12.4388 14.7097 11.8528C14.1237 11.2667 13.3288 10.9375 12.5 10.9375C11.6712 10.9375 10.8763 11.2667 10.2903 11.8528C9.70424 12.4388 9.375 13.2337 9.375 14.0625C9.375 14.8913 9.70424 15.6862 10.2903 16.2722C10.8763 16.8583 11.6712 17.1875 12.5 17.1875Z" stroke="#545454" stroke-width="2.91667" stroke-linejoin="round"/>
<path d="M6.90833 5.86775L8.25937 7.75317M18.5547 6.099L17.2031 7.98442M12.5047 3.64587V6.77087" stroke="#545454" stroke-width="2.91667" stroke-linecap="round"/>
</svg>
